<?xml version="1.0" encoding="iso-8859-1"?>
<!-- Generator: Adobe Illustrator 19.0.0, SVG Export Plug-In . SVG Version: 6.00 Build 0)  -->
<svg version="1.1" id="Capa_1" xmlns="http://www.w3.org/2000/svg" xmlns:xlink="http://www.w3.org/1999/xlink" x="0px" y="0px"
	 viewBox="0 0 463 463" style="enable-background:new 0 0 463 463;" xml:space="preserve">
<path d="M447,199.5c0-30.374-6.25-59.817-18.575-87.511c-1.005-2.258-3.057-3.875-5.487-4.325c-5.156-0.955-10.332-1.717-15.507-2.3
	C372.574,40.303,305.414,0,231.5,0C157.604,0,90.427,40.309,55.57,105.364c-5.175,0.583-10.352,1.346-15.508,2.3
	c-2.43,0.45-4.482,2.067-5.487,4.325C22.25,139.683,16,169.126,16,199.5c0,57.562,22.416,111.679,63.119,152.382
	c28.883,28.882,64.523,48.544,103.353,57.535C192.864,412.602,200,422.005,200,432.824V447.5c0,8.547,6.953,15.5,15.5,15.5h32
	c8.547,0,15.5-6.953,15.5-15.5v-14.684c0-10.815,7.089-20.203,17.416-23.373c38.873-8.979,74.555-28.652,103.465-57.562
	C424.584,311.179,447,257.062,447,199.5z M389.446,104.094c-1.986-0.056-3.97-0.094-5.946-0.094
	c-57.387,0-111.346,22.284-152.006,62.752c-5.127-5.109-10.476-9.933-16.038-14.467c25.197-47.171,65.125-86.018,112.941-109.895
	C352.988,57.555,374.012,78.53,389.446,104.094z M231.5,15c28.738,0,56.362,6.606,81.137,18.713
	c-45.861,25.124-84.209,63.44-109.285,109.393c-11.464-8.062-23.708-14.999-36.667-20.739C139.167,110.18,109.834,104,79.5,104
	c-1.976,0-3.958,0.038-5.943,0.094C106.912,48.852,166.383,15,231.5,15z M31,199.5c0-26.933,5.28-53.075,15.701-77.771
	C57.654,119.917,68.669,119,79.5,119c28.229,0,55.518,5.747,81.111,17.082c22.705,10.057,43.064,24.047,60.62,41.615
	C186.808,216.976,168,266.79,168,319.5c0,25.518,4.429,50.375,13.149,74.095C94.884,371.201,31,292.672,31,199.5z M248,432.816
	V447.5c0,0.275-0.224,0.5-0.5,0.5h-32c-0.276,0-0.5-0.225-0.5-0.5v-14.676c0-6.783-1.729-13.22-4.816-18.859
	c5.404,0.527,10.852,0.851,16.334,0.975c1.664,0.04,3.325,0.061,4.982,0.061s3.318-0.021,4.982-0.061
	c5.475-0.124,10.916-0.447,16.314-0.973C249.722,419.601,248,426.035,248,432.816z M278.672,394.381
	c-0.077,0.016-0.153,0.025-0.23,0.043c-0.249,0.06-0.492,0.13-0.738,0.194c-2.947,0.698-5.919,1.325-8.914,1.891
	c-0.194,0.021-0.387,0.042-0.582,0.077c-9.148,1.694-18.359,2.762-27.49,3.194c-0.237,0.011-0.474,0.017-0.711,0.027
	c-1.258,0.055-2.515,0.102-3.77,0.133c-1.575,0.037-3.153,0.06-4.736,0.06c-1.516,0-3.026-0.024-4.534-0.058
	c-0.807-0.019-1.616-0.047-2.425-0.076c-0.586-0.02-1.172-0.042-1.757-0.067c-7.997-0.358-16.056-1.2-24.083-2.528
	C188.28,372.574,183,346.432,183,319.5C183,208.944,272.944,119,383.5,119c10.832,0,21.846,0.917,32.799,2.729
	C426.72,146.425,432,172.567,432,199.5C432,293.812,366.54,373.11,278.672,394.381z"/>
<g>
</g>
<g>
</g>
<g>
</g>
<g>
</g>
<g>
</g>
<g>
</g>
<g>
</g>
<g>
</g>
<g>
</g>
<g>
</g>
<g>
</g>
<g>
</g>
<g>
</g>
<g>
</g>
<g>
</g>
</svg>
